<svg xmlns="http://www.w3.org/2000/svg" viewBox="0 0 110 220" fill="none">
  <defs>
    <linearGradient id="b15" x1="0%" y1="0%" x2="100%" y2="100%">
      <stop offset="0%" stop-color="#e0f2fe"/>
      <stop offset="100%" stop-color="#7dd3fc"/>
    </linearGradient>
    <linearGradient id="w15" x1="0%" y1="0%" x2="0%" y2="100%">
      <stop offset="0%" stop-color="#38bdf8" stop-opacity="0.45"/>
      <stop offset="100%" stop-color="#0284c7" stop-opacity="0.7"/>
    </linearGradient>
  </defs>
  <rect x="40" y="4" width="30" height="18" rx="3" fill="#0c4a6e"/>
  <rect x="36" y="20" width="38" height="9" rx="2" fill="#0369a1"/>
  <path d="M38 29h34v22c0 5-4 10-10 10H48c-6 0-10-5-10-10V29z" fill="url(#b15)" stroke="#7dd3fc"/>
  <path d="M24 58c0-8 7-14 15-14h32c8 0 15 6 15 14v138c0 12-10 22-22 22H46c-12 0-22-10-22-22V58z" fill="url(#b15)" stroke="#38bdf8" stroke-width="1.5"/>
  <path d="M28 95h54v95c0 8-7 16-18 16H46c-11 0-18-8-18-16V95z" fill="url(#w15)"/>
  <rect x="34" y="110" width="42" height="50" rx="6" fill="#0284c7"/>
  <text x="55" y="133" text-anchor="middle" font-size="9" font-weight="800" fill="#fff">Himudo</text>
  <text x="55" y="146" text-anchor="middle" font-size="6.5" fill="#bae6fd">1.500 ml</text>
  <path d="M38 70 L40 180" stroke="#fff" stroke-width="4" opacity="0.3" stroke-linecap="round"/>
</svg>
