<svg xmlns="http://www.w3.org/2000/svg" viewBox="0 0 140 200" fill="none">
  <defs>
    <linearGradient id="gal" x1="0%" y1="0%" x2="100%" y2="100%">
      <stop offset="0%" stop-color="#e0f2fe"/>
      <stop offset="100%" stop-color="#7dd3fc"/>
    </linearGradient>
    <linearGradient id="galW" x1="0%" y1="0%" x2="0%" y2="100%">
      <stop offset="0%" stop-color="#38bdf8" stop-opacity="0.35"/>
      <stop offset="100%" stop-color="#0284c7" stop-opacity="0.65"/>
    </linearGradient>
  </defs>
  <!-- Cap / neck top -->
  <rect x="52" y="8" width="36" height="16" rx="4" fill="#0c4a6e"/>
  <rect x="48" y="22" width="44" height="10" rx="3" fill="#0369a1"/>
  <!-- Handle -->
  <path d="M40 48 Q40 36 70 36 Q100 36 100 48" stroke="#0284c7" stroke-width="5" fill="none" stroke-linecap="round"/>
  <!-- Neck -->
  <path d="M50 32h40v28c0 6-4 12-12 12H62c-8 0-12-6-12-12V32z" fill="url(#gal)" stroke="#7dd3fc"/>
  <!-- Body wide -->
  <path d="M22 78c0-10 8-18 18-18h60c10 0 18 8 18 18v96c0 14-12 24-26 24H48c-14 0-26-10-26-24V78z" fill="url(#gal)" stroke="#38bdf8" stroke-width="2"/>
  <!-- Water -->
  <path d="M28 105h84v65c0 10-9 18-20 18H48c-11 0-20-8-20-18v-65z" fill="url(#galW)"/>
  <!-- Label -->
  <rect x="40" y="115" width="60" height="48" rx="6" fill="#0284c7"/>
  <text x="70" y="138" text-anchor="middle" font-size="11" font-weight="800" fill="#fff">Himudo</text>
  <text x="70" y="152" text-anchor="middle" font-size="7" fill="#bae6fd">GALON 19 L</text>
  <!-- Shine -->
  <path d="M36 90 L40 175" stroke="#fff" stroke-width="5" opacity="0.28" stroke-linecap="round"/>
  <!-- Bubbles -->
  <circle cx="55" cy="130" r="3" fill="#fff" opacity="0.35"/>
  <circle cx="90" cy="145" r="2.5" fill="#fff" opacity="0.3"/>
</svg>
